<?xml version="1.0" encoding="UTF-8"?><svg id="Layer_1" xmlns="http://www.w3.org/2000/svg" viewBox="0 0 408 259.5"><defs><style>.cls-1{fill:#f97c45;}.cls-2{fill:#048e80;}.cls-3{fill:#f279b2;}.cls-4{fill:#ffdc85;}.cls-5{fill:#ffc942;}.cls-6{fill:#ffb90a;}.cls-7{fill:#fcc6af;}.cls-8{fill:#d81572;}.cls-9{fill:#04d9c4;}</style></defs><circle class="cls-4" cx="198" cy="98.5" r="98.5"/><path class="cls-6" d="M408,225v5.5c0,11-9,20-20,20H205c-11,0-20-9-20-20v-5.5c0-9.22,6.33-17.04,14.86-19.33-1.22-6.11-1.86-12.42-1.86-18.89,0-53.73,44.1-97.28,98.5-97.28s98.5,43.55,98.5,97.28c0,6.47-.64,12.78-1.86,18.89,8.53,2.29,14.86,10.11,14.86,19.33Z"/><path class="cls-5" d="M223,234v5.5c0,11-9,20-20,20H20c-11,0-20-9-20-20v-5.5c0-9.22,6.33-17.04,14.86-19.33-1.22-6.11-1.86-12.42-1.86-18.89,0-53.73,44.1-97.28,98.5-97.28s98.5,43.55,98.5,97.28c0,6.47-.64,12.78-1.86,18.89,8.53,2.29,14.86,10.11,14.86,19.33Z"/><rect class="cls-1" x="298.9" y="119.54" width="24.93" height="11.22" rx="4.99" ry="4.99" transform="translate(-24.16 119.11) rotate(-20.87)"/><rect class="cls-9" x="340.36" y="148.35" width="11.22" height="24.93" rx="4.99" ry="4.99" transform="translate(54.51 406.99) rotate(-65.12)"/><rect class="cls-3" x="252.48" y="128.34" width="11.22" height="24.93" rx="4.99" ry="4.99" transform="translate(48.26 346.74) rotate(-73.08)"/><rect class="cls-8" x="338.58" y="114.61" width="24.93" height="11.22" rx="4.99" ry="4.99" transform="translate(191.78 455.36) rotate(-83.49)"/><rect class="cls-4" x="271.96" y="97.59" width="11.22" height="24.93" rx="4.99" ry="4.99" transform="translate(-19.85 136.5) rotate(-26.71)"/><rect class="cls-7" x="259.06" y="185.37" width="24.93" height="11.22" rx="4.99" ry="4.99" transform="translate(36.65 425.58) rotate(-80.09)"/><rect class="cls-5" x="303.07" y="173.05" width="24.93" height="11.22" rx="4.99" ry="4.99" transform="translate(-43.32 126.67) rotate(-21.28)"/><rect class="cls-2" x="288.89" y="146.43" width="11.22" height="24.93" rx="4.99" ry="4.99" transform="translate(49.43 386.75) rotate(-71.26)"/><rect class="cls-1" x="76.28" y="157.77" width="11.48" height="25.51" rx="5.1" ry="5.1" transform="translate(-107.14 175.66) rotate(-65.87)"/><rect class="cls-9" x="77.05" y="106.93" width="11.48" height="25.51" rx="5.1" ry="5.1" transform="translate(-36.11 35.77) rotate(-20.12)"/><rect class="cls-3" x="126.16" y="184.99" width="11.48" height="25.51" rx="5.1" ry="5.1" transform="translate(-77.55 85.36) rotate(-28.08)"/><rect class="cls-8" x="36.98" y="139.65" width="25.51" height="11.48" rx="5.1" ry="5.1" transform="translate(-79.67 62.54) rotate(-38.49)"/><rect class="cls-4" x="82.8" y="200.17" width="25.51" height="11.48" rx="5.1" ry="5.1" transform="translate(-129.94 232.01) rotate(-71.71)"/><rect class="cls-7" x="145.73" y="145.98" width="25.51" height="11.48" rx="5.1" ry="5.1" transform="translate(-58.41 118.68) rotate(-35.09)"/><rect class="cls-5" x="111.99" y="116.03" width="11.48" height="25.51" rx="5.1" ry="5.1" transform="translate(-47.54 184.75) rotate(-66.28)"/><rect class="cls-2" x="112.91" y="145.56" width="11.48" height="25.51" rx="5.1" ry="5.1" transform="translate(-57.81 68.85) rotate(-26.26)"/><rect class="cls-1" x="210.09" y="37.53" width="10.92" height="24.26" rx="4.85" ry="4.85" transform="translate(82.1 226.06) rotate(-65.87)"/><rect class="cls-9" x="209.36" y="85.88" width="10.92" height="24.26" rx="4.85" ry="4.85" transform="translate(-20.6 79.86) rotate(-20.12)"/><rect class="cls-3" x="162.65" y="11.64" width="10.92" height="24.26" rx="4.85" ry="4.85" transform="translate(8.6 81.93) rotate(-28.08)"/><rect class="cls-8" x="234.12" y="68.11" width="24.26" height="10.92" rx="4.85" ry="4.85" transform="translate(7.71 169.23) rotate(-38.49)"/><rect class="cls-4" x="190.55" y="10.56" width="24.26" height="10.92" rx="4.85" ry="4.85" transform="translate(123.86 203.43) rotate(-71.71)"/><rect class="cls-7" x="130.69" y="62.09" width="24.26" height="10.92" rx="4.85" ry="4.85" transform="translate(-12.87 94.38) rotate(-35.09)"/><rect class="cls-5" x="176.13" y="77.22" width="10.92" height="24.26" rx="4.85" ry="4.85" transform="translate(26.73 219.65) rotate(-66.28)"/><rect class="cls-2" x="175.26" y="49.14" width="10.92" height="24.26" rx="4.85" ry="4.85" transform="translate(-8.46 86.29) rotate(-26.26)"/></svg>